<svg width="422.57" height="358.91" xmlns="http://www.w3.org/2000/svg" data-name="Layer 1">
 <title>security</title>

 <g>
  <title>Layer 1</title>
  <path d="m277.85031,138.85l-13.55,0l0,-26.32c0,-29.7 -23.68,-54.39 -53.38,-54.84a54.28,54.28 0 0 0 -54.85,54.11l0,27.05l-13.52,0a22.62,22.62 0 0 0 -22.55,22.55l0,108.22a22.62,22.62 0 0 0 22.55,22.55l135.3,0a22.61,22.61 0 0 0 22.54,-22.55l0,-108.22a22.61,22.61 0 0 0 -22.54,-22.55zm-59.75,70.35l0,38.76a8.09,8.09 0 0 1 -7.5,8.12a7.91,7.91 0 0 1 -8.28,-7.9l0,-39a18,18 0 1 1 15.78,0l0,0.02zm30.44,-70.35l-76.69,0l0,-27.05a38.33,38.33 0 0 1 76.66,0l0.03,27.05z" opacity="0.1" id="svg_14"/>
  <path d="m277.85031,136.85l-13.55,0l0,-26.32c0,-29.7 -23.68,-54.39 -53.38,-54.84a54.28,54.28 0 0 0 -54.85,54.11l0,27.05l-13.52,0a22.62,22.62 0 0 0 -22.55,22.55l0,108.22a22.62,22.62 0 0 0 22.55,22.55l135.3,0a22.61,22.61 0 0 0 22.54,-22.55l0,-108.22a22.61,22.61 0 0 0 -22.54,-22.55zm-59.75,70.35l0,38.76a8.09,8.09 0 0 1 -7.5,8.12a7.91,7.91 0 0 1 -8.28,-7.9l0,-39a18,18 0 1 1 15.78,0l0,0.02zm30.44,-70.35l-76.69,0l0,-27.05a38.33,38.33 0 0 1 76.66,0l0.03,27.05z" fill="#6c63ff" id="svg_15"/>
 </g>
</svg>